{"title":"Altered.2006.720p.BDRip.x264.Iou1","uid":11543819,"size":836754473,"categoryP":"video","categoryS":"hd___movies","magnet":"?xt=urn:btih:7a41ec1ec6bc5b353df5420d184cb313c5ff04ea&amp;dn=Altered.2006.720p.BDRip.x264.Iou1&amp;tr=udp%3A%2F%2Ftracker.openbittorrent.com%3A80&amp;tr=udp%3A%2F%2Fopen.demonii.com%3A1337&amp;tr=udp%3A%2F%2Ftracker.coppersurfer.tk%3A6969&amp;tr=udp%3A%2F%2Fexodus.desync.com%3A6969","seeders":0,"leechers":1,"uploader":"jaybee211","files":-1,"time":1416699608,"description":"Genre                                    : Sci-Fi/Horror/Thriller\nFormat                                   : MPEG-4\nFormat profile                           : Base Media / Version 2\nCodec ID                                 : mp42\nFile size                                : 798 MiB\nDuration                                 : 1h 27mn\nOverall bit rate mode                    : Variable\nOverall bit rate                         : 1 270 Kbps\n\nVideo\nID                                       : 1\nFormat                                   : AVC\nFormat/Info                              : Advanced Video Codec\nFormat profile                           : &lt;a class=&quot;__cf_email__&quot; href=&quot;/cdn-cgi/l/email-protection&quot; data-cfemail=&quot;c68eafa1ae868af5e8f7&quot;&gt;[email&amp;#160;protected]&lt;/a&gt;&lt;script cf-hash='f9e31' type=&quot;text/javascript&quot;&gt;\n/* &lt;![CDATA[ */!function(){try{var t=&quot;currentScript&quot;in document?document.currentScript:function(){for(var t=document.getElementsByTagName(&quot;script&quot;),e=t.length;e--;)if(t[e].getAttribute(&quot;cf-hash&quot;))return t[e]}();if(t&amp;&amp;t.previousSibling){var e,r,n,i,c=t.previousSibling,a=c.getAttribute(&quot;data-cfemail&quot;);if(a){for(e=&quot;&quot;,r=parseInt(a.substr(0,2),16),n=2;a.length-n;n+=2)i=parseInt(a.substr(n,2),16)^r,e+=String.fromCharCode(i);e=document.createTextNode(e),c.parentNode.replaceChild(e,c)}}}catch(u){}}();/* ]]&gt; */&lt;/script&gt;\nFormat settings, CABAC                   : Yes\nFormat settings, ReFrames                : 5 frames\nCodec ID                                 : avc1\nCodec ID/Info                            : Advanced Video Coding\nDuration                                 : 1h 27mn\nBit rate                                 : 1 170 Kbps\nWidth                                    : 1 280 pixels\nHeight                                   : 720 pixels\nDisplay aspect ratio                     : 16:9\nFrame rate mode                          : Variable\nFrame rate                               : 23.976 fps\nMinimum frame rate                       : 23.810 fps\nMaximum frame rate                       : 24.390 fps\nColor space                              : YUV\nChroma subsampling                       : 4:2:0\nBit depth                                : 8 bits\nScan type                                : Progressive\nBits/(Pixel*Frame)                       : 0.053\nStream size                              : 734 MiB (92%)\n\nAudio\nID                                       : 2\nFormat                                   : AAC\nFormat/Info                              : Advanced Audio Codec\nFormat profile                           : LC\nCodec ID                                 : 40\nDuration                                 : 1h 27mn\nBit rate mode                            : Variable\nBit rate                                 : 96.0 Kbps\nMaximum bit rate                         : 150 Kbps\nChannel(s)                               : 2 channels\nChannel positions                        : Front: L R\nSampling rate                            : 48.0 KHz\nCompression mode                         : Lossy\nStream size                              : 60.3 MiB (8%)\nLanguage                                 : English\nSubtitles                                : None\n\nScreens. &lt;a href=&quot; http://bayimg.com/gAglAaaGC&quot; rel=&quot;nofollow&quot; target=&quot;_NEW&quot;&gt; http://bayimg.com/gAglAaaGC&lt;/a&gt;\n\nIMDB. &lt;a href=&quot; http://www.imdb.com/title/tt0457275/&quot; rel=&quot;nofollow&quot; target=&quot;_NEW&quot;&gt; http://www.imdb.com/title/tt0457275/&lt;/a&gt;\n\nStoryline.\nFifteen years ago, a group of men's lives were forever changed by a strange occurrence. Now, the same group of men will spend a night together ... in terror.\n\nEnjoy","torrent":{"xt":"urn:btih:7a41ec1ec6bc5b353df5420d184cb313c5ff04ea","amp;dn":"Altered.2006.720p.BDRip.x264.Iou1","amp;tr":["udp%3A%2F%2Ftracker.openbittorrent.com%3A80","udp%3A%2F%2Fopen.demonii.com%3A1337","udp%3A%2F%2Ftracker.coppersurfer.tk%3A6969","udp%3A%2F%2Fexodus.desync.com%3A6969"],"infoHash":"7a41ec1ec6bc5b353df5420d184cb313c5ff04ea","infoHashBuffer":{"type":"Buffer","data":[122,65,236,30,198,188,91,53,61,245,66,13,24,76,179,19,197,255,4,234]},"announce":[],"urlList":[]}}